<?xml version="1.0" encoding="UTF-8" standalone="no"?><!DOCTYPE svg PUBLIC "-//W3C//DTD SVG 1.1//EN" "http://www.w3.org/Graphics/SVG/1.1/DTD/svg11.dtd"><svg width="100%" height="100%" viewBox="0 0 4500 4500" version="1.1" xmlns="http://www.w3.org/2000/svg" xmlns:xlink="http://www.w3.org/1999/xlink" xml:space="preserve" xmlns:serif="http://www.serif.com/" style="fill-rule:evenodd;clip-rule:evenodd;stroke-linejoin:round;stroke-miterlimit:2;"><path id="Callengo-Logo" serif:id="Callengo Logo" d="M1229.015,3490.367c-163.253,-16.607 -487.049,-39.465 -817.821,-372.208c-548.652,-551.921 -316.539,-1933.251 692.721,-2569.713c704.227,-444.102 1265.189,-370.28 1613.557,-319.056c524.482,77.12 1131.589,531.442 1160.116,630.921c27.609,96.278 -16.955,96.301 -557.78,432.447c-101.024,62.791 -111.604,37.243 -184.133,-17.291c-835.803,-628.444 -2039.442,-95.021 -2166.819,902.649c-96.537,756.118 465.235,1153.367 822.464,1197.448c3.015,0.372 100.608,12.415 16.16,34.365c-294.108,76.447 -340.132,86.604 -578.465,80.438Zm698.074,820.714c-225.6,0.732 -694.38,23.045 -1222.633,-439.843c-293.507,-257.189 -591.482,-856.713 -426.121,-652.071c111.241,137.666 409.798,318.864 601.715,371.839c246.489,68.039 881.134,237.247 1867.667,-607.231c373.356,-319.595 355.964,-368.595 341.708,-408.762c-28.399,-80.015 -427.505,-332.55 -411.563,-394.88c11.206,-43.814 31.615,-26.792 843.343,-149.601c66.589,-10.074 771.233,-116.683 833.9,-115.28c98.288,2.201 42.077,120.123 -19.336,383.658c-22.732,97.549 -274.003,1175.795 -297.115,1216.27c-69.181,121.148 -238.385,-267.601 -349.389,-223.976c-88.121,34.632 -601.215,801.55 -1517.63,988.486c-138.837,28.321 -190.054,25.559 -244.544,31.392Z" style="fill:#fff;"/></svg>